<?xml version="1.0" encoding="utf-8"?>
<!-- Generator: Adobe Illustrator 23.0.3, SVG Export Plug-In . SVG Version: 6.00 Build 0)  -->
<svg version="1.1" id="Слой_1" xmlns="http://www.w3.org/2000/svg" xmlns:xlink="http://www.w3.org/1999/xlink" x="0px" y="0px"
	 viewBox="0 0 512.0006104 511.9989929" style="enable-background:new 0 0 512.0006104 511.9989929;" xml:space="preserve">
<style type="text/css">
	.st0{fill:#FF5E00;}
</style>
<g>
	<path class="st0" d="M406.4623718,260.9090576h19.940979c4.1500244,0,7.5130005-3.3569946,7.5130005-7.5000153
		c0-4.1430054-3.3629761-7.5-7.5130005-7.5h-19.940979c-4.1500244,0-7.5130005,3.3569946-7.5130005,7.5
		C398.9493713,257.552063,402.3123474,260.9090576,406.4623718,260.9090576z"/>
	<path class="st0" d="M265.5193787,171.7840424h-19.94104c-4.1489868,0-7.5130005,3.3569946-7.5130005,7.5
		s3.3640137,7.5,7.5130005,7.5h19.94104c4.1499634,0,7.5130005-3.3569946,7.5130005-7.5
		S269.669342,171.7840424,265.5193787,171.7840424z"/>
	<path class="st0" d="M265.5193787,208.7740326h-19.94104c-4.1489868,0-7.5130005,3.3569946-7.5130005,7.5
		s3.3640137,7.5,7.5130005,7.5h19.94104c4.1499634,0,7.5130005-3.3569946,7.5130005-7.5
		S269.669342,208.7740326,265.5193787,208.7740326z"/>
	<path class="st0" d="M406.4623718,223.7740326h19.940979c4.1500244,0,7.5130005-3.3569946,7.5130005-7.5
		s-3.3629761-7.5-7.5130005-7.5h-19.940979c-4.1500244,0-7.5130005,3.3569946-7.5130005,7.5
		S402.3123474,223.7740326,406.4623718,223.7740326z"/>
	<path class="st0" d="M406.4623718,186.7840424h19.940979c4.1500244,0,7.5130005-3.3569946,7.5130005-7.5
		s-3.3629761-7.5-7.5130005-7.5h-19.940979c-4.1500244,0-7.5130005,3.3569946-7.5130005,7.5
		S402.3123474,186.7840424,406.4623718,186.7840424z"/>
	<path class="st0" d="M265.5193787,245.9090424h-19.94104c-4.1489868,0-7.5130005,3.3569946-7.5130005,7.5
		c0,4.1430206,3.3640137,7.5000153,7.5130005,7.5000153h19.94104c4.1499634,0,7.5130005-3.3569946,7.5130005-7.5000153
		C273.0323792,249.266037,269.669342,245.9090424,265.5193787,245.9090424z"/>
	<path class="st0" d="M82.6143494,223.7740326h19.9420166c4.1489868,0,7.5130005-3.3569946,7.5130005-7.5
		s-3.3640137-7.5-7.5130005-7.5H82.6143494c-4.1489868,0-7.5130005,3.3569946-7.5130005,7.5
		S78.4653625,223.7740326,82.6143494,223.7740326z"/>
	<path class="st0" d="M163.5483704,223.7740326h19.940979c4.1489868,0,7.5130005-3.3569946,7.5130005-7.5
		s-3.3640137-7.5-7.5130005-7.5h-19.940979c-4.1489868,0-7.5130005,3.3569946-7.5130005,7.5
		S159.3993835,223.7740326,163.5483704,223.7740326z"/>
	<path class="st0" d="M346.2613831,245.9090424h-0.000061h-19.940979c-4.1499634,0-7.5130005,3.3569946-7.5130005,7.5
		c0,4.1430206,3.3630371,7.5000153,7.5130005,7.5000153h19.94104c4.1499634,0,7.5130005-3.3569946,7.5130005-7.5000153
		C353.7743835,249.266037,350.4113464,245.9090424,346.2613831,245.9090424z"/>
	<path class="st0" d="M163.5483704,260.9090576h19.940979c4.1489868,0,7.5130005-3.3569946,7.5130005-7.5000153
		c0-4.1430054-3.3640137-7.5-7.5130005-7.5h-19.940979c-4.1489868,0-7.5130005,3.3569946-7.5130005,7.5
		C156.0353699,257.552063,159.3993835,260.9090576,163.5483704,260.9090576z"/>
	<path class="st0" d="M110.0683899,253.4090424c0-4.1430054-3.3640137-7.5-7.5130005-7.5h-19.94104
		c-4.1489868,0-7.5130005,3.3569946-7.5130005,7.5c0,4.1430206,3.3640137,7.5000153,7.5130005,7.5000153h19.9420166
		C106.7053528,260.9090576,110.0683899,257.5510254,110.0683899,253.4090424z"/>
	<path class="st0" d="M82.6143494,186.7840424h19.9420166c4.1489868,0,7.5130005-3.3569946,7.5130005-7.5
		s-3.3640137-7.5-7.5130005-7.5H82.6143494c-4.1489868,0-7.5130005,3.3569946-7.5130005,7.5
		S78.4653625,186.7840424,82.6143494,186.7840424z"/>
	<path class="st0" d="M346.2613831,208.7740326h-19.94104c-4.1499634,0-7.5130005,3.3569946-7.5130005,7.5
		s3.3630371,7.5,7.5130005,7.5h19.94104c4.1499634,0,7.5130005-3.3569946,7.5130005-7.5
		S350.4113464,208.7740326,346.2613831,208.7740326z"/>
	<path class="st0" d="M346.2613831,171.7840424h-19.94104c-4.1499634,0-7.5130005,3.3569946-7.5130005,7.5
		s3.3630371,7.5,7.5130005,7.5h19.94104c4.1499634,0,7.5130005-3.3569946,7.5130005-7.5
		S350.4113464,171.7840424,346.2613831,171.7840424z"/>
	<path class="st0" d="M163.5483704,186.7840424h19.940979c4.1489868,0,7.5130005-3.3569946,7.5130005-7.5
		s-3.3640137-7.5-7.5130005-7.5h-19.940979c-4.1489868,0-7.5130005,3.3569946-7.5130005,7.5
		S159.3993835,186.7840424,163.5483704,186.7840424z"/>
	<path class="st0" d="M499.4792786,308.4710083l0.000061,0.000061h-6.5109863v-37.2860107c0-4.1430054-3.3629761-7.5-7.5130005-7.5
		c-4.1499634,0-7.5130005,3.3569946-7.5130005,7.5v37.2860107h-56.2269897v-9.5150146
		c5.7130127-0.8950195,10.9830322-3.5530396,15.151001-7.7139893l18.6849976-18.6539917
		c5.2030029-5.1929932,8.0690308-12.1000366,8.0690308-19.4450226v-96.4060059h7.3510132
		c4.1499634,0,7.5130005-3.3569946,7.5130005-7.5s-3.3630371-7.5-7.5130005-7.5h-17.7460327l-76.8939819-52.0140381
		c-5.2547607-3.5779419-12.163208-3.5779419-17.4179688,0l-34.1160278,23.0770264l-28.1538696-18.9596558
		c-0.164978-0.133667-0.3328857-0.2650146-0.5118408-0.3864136c-0.0041504-0.0028076-0.0082397-0.0056152-0.0123291-0.0083618
		L247.9194031,60.898056c-5.2542114-3.581665-12.1653442-3.5820923-17.4199829-0.0010376l-75.3629761,50.8150024
		l-16.184021-10.9459839c-5.2540894-3.5822144-12.1655273-3.5826416-17.4199829-0.0009766l-60.4020996,40.8579712
		c-0.0529785,0.0360107-0.098999,0.0770264-0.151001,0.1130371H39.0243835c-4.1490479,0-7.5130005,3.3569946-7.5130005,7.5
		s3.3639526,7.5,7.5130005,7.5h7.3519897v96.4059448c0,7.3460236,2.8659668,14.2520294,8.0679932,19.444046l18.6859741,18.6549683
		c4.1670532,4.1610107,9.4360352,6.8190308,15.1500244,7.7139893v9.5150146H32.0553894v-37.2849731
		c0-4.1430054-3.3640137-7.5-7.5130005-7.5c-4.1490479,0-7.5130005,3.3569946-7.5130005,7.5v37.2860107h-4.5080557
		c-6.9039922,0-12.5209961,5.6069946-12.5209961,12.5v23.75c0,6.8930054,5.6170044,12.5,12.5209961,12.5h24.7150269
		c-3.7059937,6.6140137-5.7249756,14.1350098-5.7249756,21.8120117c0,24.605957,20.0529785,44.625,44.7009888,44.625
		c8.6566772,0.0078735,17.1275024-2.510376,24.3739624-7.2460327c3.3396606,2.4527588,7.3754272,3.7746582,11.519043,3.7730103
		h22.8719482c4.3630371,0,8.5339966-1.4379883,11.9450073-4.0750122c7.3469238,4.9295654,15.996582,7.5571289,24.8439941,7.5469971
		c24.6490479,0,44.7010498-20.0189819,44.7010498-44.625c-0.0019531-7.6409912-1.9711304-15.152771-5.7180176-21.8120117h52.105957
		v13.5360107h-28.5180054c-4.1489868,0-7.5130005,3.3569946-7.5130005,7.5s3.3640137,7.5,7.5130005,7.5h41.6019897
		c4.1500244,0,7.5130005-3.3569946,7.5130005-7.5c0-3.4710083-2.3640137-6.381958-5.5709839-7.2379761v-13.7980347h21.3649902
		c-3.7468872,6.6592407-5.7160645,14.1710205-5.7180176,21.8120117c0,24.6060181,20.0530396,44.625,44.7009888,44.625
		c8.6566772,0.0079346,17.1275024-2.5103149,24.3740234-7.2459717c3.3396606,2.4526978,7.3754272,3.7745972,11.5189819,3.7730103
		h22.8720093c4.3630371,0,8.5339966-1.4379883,11.9440308-4.0750122c7.3468628,4.9295654,15.996521,7.5571289,24.8439941,7.5469971
		c10.1040039,0,19.6380005-3.2839966,27.5719604-9.4970093c6.8988647-4.6499023,17.1309814-16.9986572,17.1309814-35.1280518
		c-0.0018921-7.6409912-1.9711304-15.152771-5.7179565-21.8120117h26.7119751c6.9039917,0,12.5210266-5.6069946,12.5210266-12.5
		v-23.75C512.0003052,314.0789795,506.3832703,308.4710083,499.4792786,308.4710083z M448.5953674,253.1420746
		c0,3.3390045-1.302002,6.4779816-3.6680298,8.8390045l-18.6870117,18.6539917
		c-2.3445435,2.3529053-5.5323486,3.6710205-8.8540039,3.6610107h-32.1209717V156.7360687h63.3299561L448.5953674,253.1420746z
		 M335.478363,299.2960815v9.1749878h-160.960022v-9.1749878H335.478363z M222.306366,284.2960815V156.7360687h65.3839722
		v127.5600128H222.306366z M302.7153625,284.2970581V156.7360077l67.5239868,0.000061v127.5609894H302.7153625z
		 M350.5033264,299.2960815h56.1860352v9.1749878h-56.1860352V299.2960815z M367.3423767,102.141037
		c0.1696167-0.1152344,0.392395-0.1152344,0.5620117,0l58.5360107,39.5960083h-58.6710205L338.221344,121.839035
		L367.3423767,102.141037z M238.9284363,73.3140717c0.1695557-0.114502,0.3917847-0.1141357,0.5609741,0.0009766
		l42.6796875,28.8201904c0.1965332,0.1651611,0.4029541,0.3222046,0.6199951,0.4694824
		c0.0040894,0.0027466,0.0081787,0.0055542,0.0123291,0.0083008l57.8369751,39.1230469H137.7784119L238.9284363,73.3140717z
		 M129.9623718,113.181015c0.1695557-0.1144409,0.3918457-0.1140747,0.5609741,0.0010376l11.1990356,7.5750122
		l-31.1140137,20.9790039H87.7493591L129.9623718,113.181015z M83.7563782,280.6360474l-18.6870117-18.6560059
		c-2.3548584-2.3371582-3.6755371-5.5202026-3.6669922-8.838028v-96.4060059h63.3289795v55.9760132
		c0,4.1430054,3.3640137,7.5,7.5130005,7.5s7.5130005-3.3569946,7.5130005-7.5v-55.9760132h67.5239868v127.5610504h-67.5239868
		v-36.6070099c0-4.1430054-3.3640137-7.5-7.5130005-7.5s-7.5130005,3.3569946-7.5130005,7.5v36.6070099H92.6103821
		C89.2653503,284.2970581,86.1203918,282.9970703,83.7563782,280.6360474z M159.4933777,299.2960815v9.1749878h-56.1860352
		v-9.1749878H159.4933777z M76.2123718,408.6590576c-16.3630371,0-29.6749878-13.289978-29.6749878-29.625
		c0-8.2249756,3.2969971-15.867981,9.2839966-21.5219727c0.0979614-0.0930176,0.1849976-0.1929932,0.2779541-0.2900391h40.1800537
		c3.9927368,3.6567383,6.9061279,8.338623,8.4229736,13.5360107H76.0453796
		c-3.8945313-0.0145264-7.4008179,2.3569336-8.8370361,5.9769897c-1.4567261,3.6077881-0.5515747,7.7396851,2.2800293,10.40802
		l19.5830078,18.5880127C85.0604553,407.6636353,80.6645813,408.6646118,76.2123718,408.6590576z M100.5623474,395.9380493
		l-10.7260132-10.1809692h15.2720337C104.2550354,389.4091797,102.7120667,392.8647461,100.5623474,395.9380493z
		 M134.978363,405.1850586h-22.5773315c4.0966187-5.6328125,6.9143677-12.2494507,8.0053101-19.4279785h7.1669922
		c1.0880127,7.1560059,3.8920288,13.7529907,7.9680176,19.375
		C135.3543396,405.1550903,135.1683655,405.1850586,134.978363,405.1850586z M115.1973572,357.2210693h17.59198
		c-2.3632202,4.2161865-4.027771,8.7874146-4.9289551,13.5360107h-7.7350464
		C119.2289734,366.0073242,117.5644836,361.4353638,115.1973572,357.2210693z M147.063385,395.4250488
		c-1.9674072-2.9443359-3.3875122-6.2194214-4.1920166-9.6679688h14.3770142L147.063385,395.4250488z M201.4423523,379.0340576
		c0,16.3349609-13.3120117,29.625-29.6760254,29.625c-4.6721802,0.0036011-9.2784424-1.1020508-13.4400024-3.2260132
		l19.2700195-18.2910156c2.8317871-2.6686401,3.7369385-6.8009644,2.2800293-10.4089966
		c-1.4367676-3.6195068-4.9428101-5.9904785-8.8370361-5.9760132h-27.75
		c1.5148926-5.1933594,4.420166-9.8739624,8.4019775-13.5360107h40.1430054
		c6.1206665,5.6013184,9.6069336,13.5161133,9.6080322,21.8129883V379.0340576z M338.2303162,408.6590576
		c-16.3629761,0-29.6759644-13.289978-29.6759644-29.625c0.0009155-8.2969971,3.4880371-16.211853,9.6099854-21.8120117h40.1300049
		c3.9916992,3.6574707,6.904541,8.3390503,8.4219971,13.5360107H338.063324c-3.9159546,0-7.3839722,2.3460083-8.8359985,5.9760132
		c-1.4519653,3.6300049-0.55896,7.7160034,2.2789917,10.4089966l19.5830078,18.5880127
		C347.0783997,407.6636353,342.6825256,408.6646118,338.2303162,408.6590576z M362.5793152,395.9380493L351.853302,385.757019
		h15.2720337C366.2720032,389.4091797,364.7290344,392.8647461,362.5793152,395.9380493z M396.9953308,405.1849976h-22.5772705
		c4.0956421-5.6327515,6.9133301-12.2493896,8.0053101-19.4279785h7.1669922
		c1.0880127,7.1560059,3.8919678,13.7529907,7.9679565,19.375
		C397.3713074,405.1550293,397.1863098,405.1849976,396.9953308,405.1849976z M377.2103577,357.2210083h17.5899658
		c-2.3677368,4.2141724-4.0325317,8.7861328-4.9289551,13.5360107h-0.000061h-7.730957
		C381.2423401,366.0074463,379.57724,361.4356689,377.2103577,357.2210083z M409.0803528,395.4250488
		c-1.9674072-2.9443359-3.3875122-6.2194824-4.1920166-9.6680298h14.3770142L409.0803528,395.4250488z M452.0812683,402.3570557
		c-5.2630005,4.1209717-11.5899658,6.2999878-18.2979736,6.2999878c-4.6721802,0.0036011-9.2785034-1.1020508-13.4400024-3.2260132
		l19.2699585-18.2910156c2.8380127-2.6929932,3.7319946-6.7789917,2.2789917-10.4089966s-4.9219971-5.9760132-8.8359985-5.9760132
		h-27.7609863c1.5161133-5.1975708,4.4291992-9.8794556,8.4219971-13.5360107h40.1329956
		c6.1212158,5.600647,9.6078491,13.5152588,9.6090088,21.8120117
		C463.459259,388.5471191,460.3650818,395.6605835,452.0812683,402.3570557z M496.9753723,342.2210083h-0.0010376H15.0263376v-18.75
		h481.9490356V342.2210083z"/>
	<path class="st0" d="M504.4997864,438.786499H7.5008245c-4.142395,0-7.5004883,3.3580322-7.5004883,7.5004272v0.000061
		c0,4.142395,3.3580933,7.5004883,7.5004883,7.5004883h496.9989624c4.1424561,0,7.5005188-3.3580933,7.5005188-7.5004883v-0.000061
		C512.0003052,442.1445313,508.6422424,438.786499,504.4997864,438.786499z"/>
</g>
</svg>
