<?xml version="1.0" encoding="utf-8"?>
<!-- Generator: Adobe Illustrator 23.0.3, SVG Export Plug-In . SVG Version: 6.00 Build 0)  -->
<svg version="1.1" id="Слой_1" xmlns="http://www.w3.org/2000/svg" xmlns:xlink="http://www.w3.org/1999/xlink" x="0px" y="0px"
	 viewBox="0 0 439.265564 439.2670288" style="enable-background:new 0 0 439.265564 439.2670288;" xml:space="preserve">
<style type="text/css">
	.st0{fill:#FF5E00;}
</style>
<g>
	<path class="st0" d="M428.5791931,355.3163147L416.4664612,316.95578l15.7967529-15.7967834
		c9.357605-9.3875427,9.333313-24.5834656-0.0542297-33.9410706c-8.6676636-8.6399841-22.4481201-9.3742065-31.9847717-1.7041626
		l-8.1953735-25.9437561l11.9501038-11.9501038c9.3753662-9.3697968,9.3799133-24.5657501,0.0101013-33.9411316
		c-7.347229-7.3516388-18.5917358-9.1384583-27.855957-4.4264832l-13.9724426-44.2648773l54.3623657-54.3623734
		c1.0617981-1.0597076,1.802124-2.398201,2.1354675-3.8608093l9.7722168-42.3556976
		c3.478363-15.0637207-5.9134216-30.095068-20.9771423-33.5734291c-4.1442261-0.9569407-8.4520569-0.9569426-12.596283,0.0000019
		l-42.3556824,9.7722216c-1.462616,0.3333549-2.8010864,1.0736771-3.8608093,2.1354599l-54.3623657,54.3623657
		l-44.2648773-13.9724274c6.009079-11.814476,1.3028412-26.2633057-10.5116272-32.2723656
		c-9.2642517-4.7119713-20.5087433-2.9251499-27.8560028,4.426506l-11.9501038,11.9500999l-25.9437408-8.1953659
		c8.3071594-10.3286877,6.6683807-25.4360275-3.6603088-33.7431793c-9.5366821-7.6701708-23.317276-6.9359336-31.9849548,1.7041731
		l-15.7967606,15.7967644L83.9494934,10.6866131c-2.8468704-0.8972359-5.9564896-0.1368637-8.0680923,1.9728317
		L47.5971298,40.943718c-3.1203384,3.1257973-3.1203423,8.1879234,0,11.3137054
		c0.2246284,0.2245445,0.4631653,0.4347267,0.7141762,0.6293297l24.5861015,19.3252296L58.9108391,86.1985474
		c-3.1241913,3.1241913-3.1241951,8.1895142,0,11.3137131l22.6274147,22.6274185
		c3.1241989,3.1241913,8.1895218,3.1241913,11.3137131,0l18.0595093-18.0595169l19.0070419,14.9340897l-20.095993,20.095993
		c-3.1241913,3.1241913-3.1241913,8.1894989,0,11.3137054l22.6274261,22.6274109
		c3.1241913,3.1241913,8.1895142,3.1241913,11.3137054,0l24.1688995-24.1688995l31.6783752,24.8901672L87.4567337,283.9268188
		l-60.789978-13.2158203c-2.6597538-0.5765686-5.4302082,0.2385559-7.3538971,2.1637268l-16.970562,16.9705811
		c-3.1237273,3.1246643-3.1229613,8.1899719,0.001694,11.3137207c0.4622478,0.4620667,0.9793499,0.8657837,1.5397937,1.2020874
		l62.6355171,37.5756531l-7.1205559,6.0315857c-3.3708534,2.8452148-3.7969894,7.8843079-0.9517746,11.2551575
		c0.1473427,0.1745605,0.3020973,0.3427429,0.4638672,0.5040283l22.6274147,22.6274414
		c3.1146774,3.1235657,8.1717377,3.1307983,11.2953262,0.0161438c0.1617584-0.1613464,0.3165207-0.3294678,0.4638672-0.5040588
		l6.0316162-7.1205444l37.5756454,62.635498c2.2733307,3.7885742,7.1874695,5.0169067,10.9759979,2.7435913
		c0.5604553-0.3363037,1.0775757-0.7399902,1.5397949-1.2020874l16.9705658-16.9705811
		c1.9251862-1.9236755,2.7403412-4.6941528,2.1637421-7.3539124l-13.2158203-60.7899475l112.1542053-112.1542206
		l24.8901672,31.67836l-24.1689148,24.1689453c-3.1242065,3.124176-3.1242065,8.1895142,0,11.3136902l22.6274109,22.6274109
		c3.1242065,3.1242065,8.1895142,3.1242065,11.3137207,0l20.0959778-20.0959778l14.934082,19.0070496l-18.0595093,18.0595093
		c-3.124176,3.124176-3.124176,8.1895142,0,11.3136902l22.6274109,22.6274414c3.1242065,3.124176,8.1895142,3.124176,11.3137207,0
		l13.9865723-13.9865723l19.3252258,24.5860901c0.1945801,0.2510071,0.4047852,0.4895325,0.6293335,0.7141724
		c3.1257935,3.1203613,8.1879272,3.1203613,11.3136902,0l28.2842712-28.2842712
		C428.7160645,361.2727966,429.4764404,358.163208,428.5791931,355.3163147z M401.8222656,26.1298294
		c6.0986328,0.3476048,10.9661255,5.2150917,11.3137207,11.3137093L381.351532,69.2279892
		c-3.1242065,3.1241989-8.1895142,3.1241913-11.3137207,0c-3.124176-3.1241913-3.124176-8.1895142,0-11.3137093
		L401.8222656,26.1298294z M222.95961,46.6005707c3.1241913-3.1241913,8.1895142-3.1241913,11.3137054,0
		s3.1241913,8.189518,0,11.3137093l-0.1838379,0.1838417l-17.1968384-5.430584L222.95961,46.6005707z M149.4205017,18.3162994
		c3.1241913-3.1241913,8.1895142-3.124197,11.3137207,0c3.1241913,3.124197,3.1241913,8.1895161,0,11.3137093l-4.0305176,4.0305061
		l-17.1968231-5.4305859L149.4205017,18.3162994z M87.1951141,103.1691132L75.8814011,91.8554077l9.6873703-9.6873779
		l12.6713638,9.9560547L87.1951141,103.1691132z M138.1067963,154.0807953l-11.3137054-11.3137054l15.7967682-15.7967606
		l12.6713562,9.9560471L138.1067963,154.0807953z M65.2889328,45.8793297l18.4696274-18.4696255l197.7636261,62.4516754
		l-70.5126953,70.5126877L65.2889328,45.8793297z M76.3693085,352.5585938l61.2849426-51.8521423l0.9051056,0.9051208
		l-51.8521271,61.2849426L76.3693085,352.5585938z M151.9873047,411.7293091l-6.6326599,6.6326599l-35.1149292-58.5201416
		l45.2831116-53.513855c2.6897278-3.1752014,2.4960327-7.8822937-0.4454651-10.8258057l-11.3137054-11.3137207
		c-2.943512-2.9415283-7.6505737-3.1351929-10.8258057-0.4454651l-53.513855,45.2831116l-58.5201454-35.1149292l6.6326637-6.6326599
		l60.7899857,13.2158203c2.6597519,0.5765686,5.4302063-0.2385559,7.3538895-2.1637268L358.3352051,35.6757736l14.7007446-3.387043
		l-14.3118286,14.3118401c-9.3725891,9.3725853-9.3725891,24.5685425,0,33.941124
		c9.3725586,9.3725739,24.5685425,9.3725891,33.9411316,0l14.3118286-14.3118439l-3.3870239,14.7007523L140.9352264,343.5854187
		c-1.9251862,1.9236755-2.7403412,4.6941528-2.1637421,7.3539429L151.9873047,411.7293091z M409.6358032,278.5315857
		c3.124176-3.124176,8.1895142-3.124176,11.3137207,0c3.124176,3.1242065,3.124176,8.1895142,0,11.3137207l-9.9136658,9.9136353
		l-5.4305725-17.1968384L409.6358032,278.5315857z M381.351532,204.9924927c3.124176-3.1241913,8.1895142-3.1241913,11.3137207,0
		c3.124176,3.1241913,3.124176,8.1895142,0,11.3137054l-6.0669861,6.0669708l-5.430603-17.1968231L381.351532,204.9924927z
		 M296.4987183,312.4727173l-11.3137207-11.3137207l17.1544189-17.1543884l7.467041,9.5035095l2.4890137,3.1678467
		L296.4987183,312.4727173z M347.4104004,363.3843994l-11.3136902-11.3136902l11.0449829-11.0450134l9.9560547,12.6713562
		L347.4104004,363.3843994z M393.3864746,373.9768677L278.8917542,228.2563019l70.5126953-70.5126953l62.4516907,197.7636261
		L393.3864746,373.9768677z"/>
	<path class="st0" d="M347.4104004,91.8554077c-3.124176-3.1241913-8.1895142-3.1241989-11.3136902,0L211.6459045,216.3061981
		c-3.1241913,3.1241913-3.1241913,8.1895142,0,11.3137054s8.1895142,3.1241913,11.3137054,0l124.4507904-124.4507904
		C350.5346069,100.0449142,350.5346069,94.979599,347.4104004,91.8554077z M200.3321991,238.933609
		c-3.1241913-3.1241913-8.1895142-3.1241913-11.3137054,0l-11.3137207,11.3137207
		c-3.1241913,3.1241913-3.1241913,8.1894989,0,11.3137054c3.1241913,3.124176,8.1895294,3.124176,11.3137207,0
		l11.3137054-11.3137054C203.4563904,247.1231384,203.4563904,242.0578003,200.3321991,238.933609z"/>
</g>
</svg>
