<?xml version="1.0" encoding="utf-8"?>
<!-- Generator: Adobe Illustrator 23.0.3, SVG Export Plug-In . SVG Version: 6.00 Build 0)  -->
<svg version="1.1" id="Слой_1" xmlns="http://www.w3.org/2000/svg" xmlns:xlink="http://www.w3.org/1999/xlink" x="0px" y="0px"
	 viewBox="0 0 512.0006104 511.9989929" style="enable-background:new 0 0 512.0006104 511.9989929;" xml:space="preserve">
<style type="text/css">
	.st0{fill:#FF5E00;}
</style>
<path class="st0" d="M123.8707581,231.2253418H41.2902527c-4.560791,0-8.2580566,3.6972656-8.2580566,8.2580566v33.0321655
	c0,4.5687866,3.7016602,8.2580566,8.2580566,8.2580566h82.5805054c4.5563354,0,8.2579956-3.68927,8.2579956-8.2580566v-33.0321655
	C132.1287537,234.9226074,128.4315491,231.2253418,123.8707581,231.2253418z M115.6127014,264.2575073H49.5483093v-16.5160522
	h66.0643921V264.2575073z"/>
<path class="st0" d="M41.2889938,198.1931458h82.5829773c4.5600967,0,8.2567978,3.696701,8.2567978,8.2568054v0.0025024
	c0,4.5601044-3.696701,8.2567902-8.2567978,8.2567902H41.2889938c-4.5601044,0-8.2568016-3.6966858-8.2568016-8.2567902v-0.0025024
	C33.0321922,201.8898468,36.7288895,198.1931458,41.2889938,198.1931458z"/>
<path class="st0" d="M255.9982452,165.160965h82.582962c4.5601196,0,8.2568054,3.6966858,8.2568054,8.2567902v0.0025024
	c0,4.5601044-3.6966858,8.2568054-8.2568054,8.2568054h-82.582962c-4.5601044,0-8.2568054-3.696701-8.2568054-8.2568054v-0.0025024
	C247.7414398,168.8576508,251.4381409,165.160965,255.9982452,165.160965z M255.9982452,198.1931458h181.6795502
	c4.5600891,0,8.2568054,3.696701,8.2568054,8.2568054v0.0025024c0,4.5601044-3.6967163,8.2567902-8.2568054,8.2567902H255.9982452
	c-4.5601044,0-8.2568054-3.6966858-8.2568054-8.2567902v-0.0025024
	C247.7414398,201.8898468,251.4381409,198.1931458,255.9982452,198.1931458z M255.9982452,231.2253418h165.1634674
	c4.5600891,0,8.2567749,3.696701,8.2567749,8.2568054v0.0024872c0,4.5601044-3.6966858,8.2568054-8.2567749,8.2568054H255.9982452
	c-4.5601044,0-8.2568054-3.696701-8.2568054-8.2568054v-0.0024872
	C247.7414398,234.9220428,251.4381409,231.2253418,255.9982452,231.2253418z M255.9982452,264.2575378H379.87146
	c4.5600891,0,8.2568054,3.6966858,8.2568054,8.2568054v0.0025024c0,4.5600891-3.6967163,8.2567749-8.2568054,8.2567749H255.9982452
	c-4.5601044,0-8.2568054-3.6966858-8.2568054-8.2567749v-0.0025024
	C247.7414398,267.9542236,251.4381409,264.2575378,255.9982452,264.2575378z M255.9982452,297.2897339h90.8410187
	c4.5601196,0,8.2568054,3.6966858,8.2568054,8.2568054v0.0024719c0,4.5601196-3.6966858,8.2568054-8.2568054,8.2568054h-90.8410187
	c-4.5601044,0-8.2568054-3.6966858-8.2568054-8.2568054v-0.0024719
	C247.7414398,300.9864197,251.4381409,297.2897339,255.9982452,297.2897339z M255.9982452,330.3219299h57.8088226
	c4.5601196,0,8.2568054,3.6966858,8.2568054,8.2568054v0.0024719c0,4.5601196-3.6966858,8.2568054-8.2568054,8.2568054h-57.8088226
	c-4.5601044,0-8.2568054-3.6966858-8.2568054-8.2568054v-0.0024719
	C247.7414398,334.0186157,251.4381409,330.3219299,255.9982452,330.3219299z M255.9982452,363.354126h33.0346832
	c4.5601196,0,8.2568054,3.6966858,8.2568054,8.2567749v0.0025024c0,4.5601196-3.6966858,8.2568054-8.2568054,8.2568054h-33.0346832
	c-4.5601044,0-8.2568054-3.6966858-8.2568054-8.2568054v-0.0025024
	C247.7414398,367.0508118,251.4381409,363.354126,255.9982452,363.354126z M357.5156555,476.5471802
	c3.2174072,3.2244873,8.4395752,3.2302551,11.6640625,0.0128479c0.0042725-0.0042725,0.0085449-0.0085449,0.0128479-0.0128479
	l10.6776428-10.6776428l10.6776428,10.6776428c1.6082764,1.6092834,3.7264404,2.4196167,5.8384399,2.4196167
	c2.11203,0,4.2301941-0.8103333,5.8384705-2.4196167l10.6776428-10.6776428l4.8392029,4.8392029
	c3.2244873,3.2244873,8.4523926,3.2244873,11.6768799,0h0.0000305c3.2244568-3.2244873,3.2244568-8.4523926,0-11.6768799
	l-10.6776733-10.6776733c-3.2173767-3.2244568-8.4395447-3.2302246-11.664032-0.0128479
	c-0.0042725,0.004303-0.0085754,0.0085754-0.0128479,0.0128479l-10.6776733,10.6776733l-10.6776428-10.6776733
	c-3.2173767-3.2244568-8.4395447-3.2302246-11.664032-0.0128479c-0.0042725,0.004303-0.0085754,0.0085754-0.0128479,0.0128479
	l-10.6776428,10.6776733l-10.6776733-10.6776733c-3.2173767-3.2244568-8.4395447-3.2302246-11.664032-0.0128479
	c-0.0042725,0.004303-0.0085754,0.0085754-0.0128479,0.0128479l-10.6776428,10.6776733
	c-3.2244873,3.2244873-3.2244873,8.4523926,0,11.6768799l0,0c3.2244873,3.2244873,8.4523926,3.2244873,11.6768799,0
	l4.8392029-4.8392029L357.5156555,476.5471802z M509.5793762,241.9029999l-24.7741394-24.7741547
	c-3.2174072-3.224472-8.4395752-3.2302399-11.664032-0.0128479c-0.004303,0.0042877-0.0085754,0.0085754-0.0128784,0.0128479
	l-181.6770325,181.677063c-0.4562378,0.4552307-0.7019348,1.0240173-1.0240173,1.5442505l-0.1414185-0.0805054
	l-41.2902222,66.0643921c-2.0383759,3.2601318-1.5550232,7.4960327,1.1654053,10.2131348
	c1.5480652,1.5491638,3.6483765,2.4196167,5.8384552,2.4196167c1.5039825,0,3.0244904-0.4108582,4.3664398-1.2542114
	l66.0643616-41.2902222l-0.0805054-0.1331482c0.5285034-0.3303528,1.0890198-0.567749,1.5442505-1.0240173l181.677063-181.677063
	c3.2290039-3.2144165,3.2408447-8.4378967,0.0264282-11.6669312c-0.006073-0.006073-0.0121155-0.012146-0.0181885-0.0182037
	H509.5793762z M298.7937317,417.8262634l10.0882568,10.0882263l-26.9191895,16.8226929L298.7937317,417.8262634z
	 M322.0638733,417.7416077l-13.0972595-13.0972595l124.5809021-124.579895l13.0972595,13.0962524L322.0638733,417.7416077z
	 M458.3216553,281.4838257l-13.097229-13.0972595l33.7423706-33.7413483l13.097229,13.0962219L458.3216553,281.4838257z"/>
<path class="st0" d="M470.707489,198.1931763h0.0025024c4.5601196,0,8.2567749-3.6967163,8.2567749-8.2568359v-49.5494995
	c0-4.560791-3.6972046-8.2580566-8.2580566-8.2580566h-90.838501V8.2580595c0-4.560791-3.6972656-8.2580566-8.2580566-8.2580566
	H8.2580881c-4.5607915,0-8.2580566,3.6972656-8.2580566,8.2580566v346.8380127c0,4.5687256,3.7016602,8.2580566,8.2580566,8.2580566
	H214.709259v140.3867798c0,4.5687866,3.7016602,8.2580566,8.2580566,8.2580566h247.741394
	c4.5563965,0,8.2580566-3.68927,8.2580566-8.2580566V322.0626221c0-4.5601196-3.6966553-8.2568359-8.2567749-8.2568359h-0.0025024
	c-4.5601196,0-8.2567749,3.6967163-8.2567749,8.2568359v173.4202271H231.2253723V148.6448364h231.2253418v41.2915039
	C462.4507141,194.49646,466.1473694,198.1931763,470.707489,198.1931763z M214.709259,346.8380127H16.5160828v-33.0322266
	H214.709259V346.8380127z M363.3540955,132.1287842H247.7414246h-16.5160522h-8.2580566
	c-4.560791,0-8.2580566,3.6972656-8.2580566,8.2580566v8.2579956v16.5161133v132.1287842H16.5160828V16.5161171h115.6126709
	v3.8182983l2.5548096-3.8182983h13.9613037h82.5805054h16.5160522h115.6126709V132.1287842z"/>
<path class="st0" d="M137.2930603,155.1638031c-1.3388672,0-2.6806641-0.3222656-3.90625-0.9741211
	c-2.7158203-1.4443359-4.4125977-4.2695313-4.4125977-7.3452148V9.5280609c0-4.5947266,3.7246094-8.3193359,8.3193359-8.3193359
	h86.402832c4.5947266,0,8.3193359,3.7246094,8.3193359,8.3193359v137.3164063c0,3.0776367-1.6992188,5.9042969-4.4174805,7.3476563
	c-2.7177734,1.4438477-6.0117188,1.2680664-8.5615234-0.4555664l-38.4868164-26.019043l-38.605957,26.0253906
	C140.5445251,154.686264,138.92099,155.1638031,137.2930603,155.1638031z M145.6128845,17.8473969v113.3554688l30.293457-20.4213867
	c2.8134766-1.8974609,6.4975586-1.8950195,9.3100586,0.0063477l30.1606445,20.3901367V17.8473969H145.6128845z"/>
</svg>
