<?xml version="1.0" encoding="utf-8"?>
<!-- Generator: Adobe Illustrator 23.0.3, SVG Export Plug-In . SVG Version: 6.00 Build 0)  -->
<svg version="1.1" id="Слой_1" xmlns="http://www.w3.org/2000/svg" xmlns:xlink="http://www.w3.org/1999/xlink" x="0px" y="0px"
	 viewBox="0 0 512.0006104 511.9989929" style="enable-background:new 0 0 512.0006104 511.9989929;" xml:space="preserve">
<style type="text/css">
	.st0{fill:#FF5E00;}
</style>
<path class="st0" d="M133.0396423,184.2082367c-4.5761719,0-8.2993164-3.7231445-8.2993164-8.2993164v-10
	c0-4.5761719,3.7231445-8.2993164,8.2993164-8.2993164s8.2993164,3.7231445,8.2993164,8.2993164v10
	C141.3389587,180.4850922,137.6158142,184.2082367,133.0396423,184.2082367z M93.0396423,184.2082367
	c-4.5761719,0-8.2993164-3.7231445-8.2993164-8.2993164v-10c0-4.5761719,3.7231445-8.2993164,8.2993164-8.2993164
	s8.2993164,3.7231445,8.2993164,8.2993164v10C101.3389587,180.4850922,97.6158142,184.2082367,93.0396423,184.2082367z"/>
<path class="st0" d="M441.7862244,464.2077637c-17.40625,0-25.8662109-5.4326172-34.0478516-10.6855469
	c-7.4589844-4.7900391-14.5039063-9.3144531-27.2060547-9.3144531c-12.6738281,0-19.7207031,4.5214844-27.1816406,9.3085938
	c-8.1933594,5.2558594-16.6650391,10.6914063-34.0693359,10.6914063c-17.40625,0-25.8652344-5.4326172-34.0449219-10.6855469
	c-7.4580078-4.7900391-14.5019531-9.3144531-27.2041016-9.3144531c-12.6733398,0-19.7197266,4.5214844-27.1796875,9.3085938
	c-8.1923828,5.2558594-16.6635742,10.6914063-34.0678711,10.6914063c-17.4052734,0-25.8637695-5.4316406-34.0444336-10.6855469
	c-7.4580078-4.7900391-14.5024414-9.3144531-27.2045898-9.3144531c-12.6738281,0-19.7197266,4.5214844-27.1796875,9.3085938
	c-8.1923828,5.2558594-16.6635742,10.6914063-34.0693359,10.6914063c-17.4047852,0-25.8632813-5.4316406-34.0429688-10.6855469
	c-7.4580078-4.7900391-14.5019531-9.3144531-27.2041016-9.3144531c-4.5761719,0-8.2993164-3.7226563-8.2993164-8.2988281
	s3.723145-8.2988281,8.2993164-8.2988281c17.4042969,0,25.8632813,5.4316406,34.043457,10.6855469
	c7.4580078,4.7900391,14.5024414,9.3144531,27.2036133,9.3144531c12.6733398,0,19.7197266-4.5214844,27.1801758-9.3085938
	c8.1923828-5.2558594,16.6640625-10.6914063,34.0688477-10.6914063c17.40625,0,25.8647461,5.4316406,34.0444336,10.6855469
	c7.4580078,4.7900391,14.5019531,9.3144531,27.2045898,9.3144531c12.6733398,0,19.7192383-4.5214844,27.1791992-9.3085938
	c8.1923828-5.2558594,16.6635742-10.6914063,34.0683594-10.6914063c17.4042969,0,25.8632813,5.4316406,34.0439453,10.6855469
	c7.4580078,4.7900391,14.5029297,9.3144531,27.2050781,9.3144531c12.6738281,0,19.7207031-4.5214844,27.1806641-9.3085938
	c8.1923828-5.2558594,16.6640625-10.6914063,34.0703125-10.6914063s25.8652344,5.4316406,34.046875,10.6855469
	c7.4589844,4.7900391,14.5039063,9.3144531,27.2070313,9.3144531c12.8447266,0,18.9814453-4.0087891,26.0878906-8.6503906
	c7.7470703-5.0576172,17.3847656-11.3496094,35.1660156-11.3496094c4.5761719,0,8.2988281,3.7226563,8.2988281,8.2988281
	s-3.7226563,8.2988281-8.2988281,8.2988281c-12.84375,0-18.9814453,4.0087891-26.0878906,8.6494141
	C469.2061462,457.9147949,459.5684509,464.2077637,441.7862244,464.2077637z M441.7862244,414.2077637
	c-17.40625,0-25.8662109-5.4326172-34.0478516-10.6855469c-7.4589844-4.7900391-14.5039063-9.3144531-27.2060547-9.3144531
	c-12.6738281,0-19.7207031,4.5214844-27.1816406,9.3085938c-8.1933594,5.2558594-16.6650391,10.6914063-34.0693359,10.6914063
	c-17.40625,0-25.8652344-5.4326172-34.0449219-10.6855469c-7.4580078-4.7900391-14.5019531-9.3144531-27.2041016-9.3144531
	c-12.6733398,0-19.7197266,4.5214844-27.1796875,9.3085938c-8.1923828,5.2558594-16.6635742,10.6914063-34.0678711,10.6914063
	c-17.4052734,0-25.8637695-5.4316406-34.0444336-10.6855469c-7.4580078-4.7900391-14.5024414-9.3144531-27.2045898-9.3144531
	c-12.6738281,0-19.7197266,4.5214844-27.1796875,9.3085938c-8.1923828,5.2558594-16.6635742,10.6914063-34.0693359,10.6914063
	c-13.715332,0-22.3310547-3.8398438-27.6186523-6.7275391c-2.8481445-1.4160156-5.3017578-3.0654297-7.6743164-4.6601563
	c-6.2973633-4.234375-12.809082-8.6123047-25.9541016-8.6123047c-4.5761719,0-8.2993164-3.7226563-8.2993164-8.2988281
	s3.723145-8.2988281,8.2993164-8.2988281c7.8041983,0,14.6899405,1.1962891,21.0498047,3.6591797l3.090332,1.1962891
	L5.0044866,257.986084c-0.6469727-2.5014801-0.1088867-5.1098785,1.4755859-7.1567535
	c1.5844731-2.0458984,3.9750981-3.2197266,6.5595708-3.2197266h21.7006836V125.9089203
	c0-4.5761719,3.7231445-8.2993164,8.2993164-8.2993164h21.7006836V65.9089203c0-4.5761719,3.7231445-8.2993164,8.2993164-8.2993164
	h31.7006836V35.9089203c0-4.5761719,3.7231445-8.2993164,8.2993164-8.2993164s8.2993164,3.7231445,8.2993164,8.2993164v21.7006836
	h31.7006836c4.5761719,0,8.2993164,3.7231445,8.2993164,8.2993164v51.7006836h21.7006836
	c4.5761719,0,8.2993164,3.7231445,8.2993164,8.2993164v121.7006836h63.4023438v-91.7006836
	c0-4.5761719,3.7226563-8.2993164,8.2988281-8.2993164h41.7011719V55.9089203c0-4.5761719,3.7226563-8.2993164,8.2988281-8.2993164
	h100c4.5761719,0,8.2988281,3.7231445,8.2988281,8.2993164v91.7006836h41.7011719
	c4.5761719,0,8.2988281,3.7231445,8.2988281,8.2993164v51.7006836h31.7011719c2.5175781,0,4.8701172,1.1245117,6.453125,3.0849609
	c1.5839844,1.9614258,2.1894531,4.4980469,1.6591797,6.9594727l-35.8242188,166.621109l3.1162109-1.4765625
	c7.46875-3.5400391,15.2851563-5.1884766,24.5957031-5.1884766c4.5761719,0,8.2988281,3.7226563,8.2988281,8.2988281
	s-3.7226563,8.2988281-8.2988281,8.2988281c-12.84375,0-18.9814453,4.0087891-26.0878906,8.6494141
	C465.6788025,410.2194824,456.7364197,414.2077637,441.7862244,414.2077637z M380.5323181,377.6101074
	c17.40625,0,25.8652344,5.4316406,34.046875,10.6855469c7.4589844,4.7900391,14.5039063,9.3144531,27.2070313,9.3144531
	c5.0244141,0,9.3535156-0.6132813,13.234375-1.875l0.9316406-0.3017578l8.8632813-41.2255859H47.0196228l10.3676758,40.109375
	l0.769043,0.328125c4.7304688,2.0224609,9.855957,2.9648438,16.1303711,2.9648438
	c12.6733398,0,19.7197266-4.5214844,27.1801758-9.3085938c8.1923828-5.2558594,16.6640625-10.6914063,34.0688477-10.6914063
	c17.40625,0,25.8647461,5.4316406,34.0444336,10.6855469c7.4580078,4.7900391,14.5019531,9.3144531,27.2045898,9.3144531
	c12.6733398,0,19.7192383-4.5214844,27.1791992-9.3085938c8.1923828-5.2558594,16.6635742-10.6914063,34.0683594-10.6914063
	c17.4042969,0,25.8632813,5.4316406,34.0439453,10.6855469c7.4580078,4.7900391,14.5029297,9.3144531,27.2050781,9.3144531
	c12.6738281,0,19.7207031-4.5214844,27.1806641-9.3085938C354.6543884,383.0456543,363.1260681,377.6101074,380.5323181,377.6101074
	z M42.730072,337.6101074h425.6538086l24.3828125-113.4018707H386.4776306l-37.5703125,37.5693512
	c-1.5673828,1.5673828-3.6513672,2.4306641-5.8671875,2.4306641H23.7564392L42.730072,337.6101074z M271.3389587,247.6096039
	h68.2617188l15.140625-15.1391602v-68.262207h-33.4023438v11.7006836c0,4.5761719-3.7226563,8.2993164-8.2988281,8.2993164
	s-8.2988281-3.7231445-8.2988281-8.2993164v-11.7006836h-33.4023438V247.6096039z M133.0396423,207.6096039
	c4.5761719,0,8.2993164,3.7231445,8.2993164,8.2993164v31.7006836h33.4013672V134.2082367H51.3389587v113.4013672h33.4013672
	v-31.7006836c0-4.5761719,3.7231445-8.2993164,8.2993164-8.2993164H133.0396423z M101.3389587,247.6096039h23.4013672v-23.4013672
	h-23.4013672V247.6096039z M371.3389587,215.2966156l2.7617188-2.2006836
	c0.5263672-0.4199219,1.0371094-0.9667969,1.578125-1.5458984c1.6396484-1.7553711,3.6806641-3.9404297,7.3613281-3.9404297
	h71.7011719v-43.4013672h-33.4023438v11.7006836c0,4.5761719-3.7226563,8.2993164-8.2988281,8.2993164
	s-8.2988281-3.7231445-8.2988281-8.2993164v-11.7006836h-33.4023438V215.2966156z M321.3389587,147.6096039h83.4023438V64.2082367
	h-33.4023438v11.7006836c0,4.5761719-3.7226563,8.2993164-8.2988281,8.2993164s-8.2988281-3.7231445-8.2988281-8.2993164V64.2082367
	h-33.4023438V147.6096039z M81.3389587,117.6096039h63.4013672V74.2082367H81.3389587V117.6096039z"/>
<path class="st0" d="M433.0401306,314.2077637c-4.5761719,0-8.2988281-3.7226563-8.2988281-8.2988281v-10
	c0-4.5761719,3.7226563-8.2988281,8.2988281-8.2988281s8.2988281,3.7226563,8.2988281,8.2988281v10
	C441.3389587,310.4851074,437.6163025,314.2077637,433.0401306,314.2077637z M383.0401306,314.2077637
	c-4.5761719,0-8.2988281-3.7226563-8.2988281-8.2988281v-10c0-4.5761719,3.7226563-8.2988281,8.2988281-8.2988281
	s8.2988281,3.7226563,8.2988281,8.2988281v10C391.3389587,310.4851074,387.6163025,314.2077637,383.0401306,314.2077637z
	 M333.0401306,314.2077637c-4.5761719,0-8.2988281-3.7226563-8.2988281-8.2988281v-10
	c0-4.5761719,3.7226563-8.2988281,8.2988281-8.2988281s8.2988281,3.7226563,8.2988281,8.2988281v10
	C341.3389587,310.4851074,337.6163025,314.2077637,333.0401306,314.2077637z M283.0401306,314.2077637
	c-4.5761719,0-8.2988281-3.7226563-8.2988281-8.2988281v-10c0-4.5761719,3.7226563-8.2988281,8.2988281-8.2988281
	s8.2988281,3.7226563,8.2988281,8.2988281v10C291.3389587,310.4851074,287.6163025,314.2077637,283.0401306,314.2077637z
	 M233.0396423,314.2077637c-4.5761719,0-8.2993164-3.7226563-8.2993164-8.2988281v-10
	c0-4.5761719,3.7231445-8.2988281,8.2993164-8.2988281s8.2993164,3.7226563,8.2993164,8.2988281v10
	C241.3389587,310.4851074,237.6158142,314.2077637,233.0396423,314.2077637z M183.0396423,314.2077637
	c-4.5761719,0-8.2993164-3.7226563-8.2993164-8.2988281v-10c0-4.5761719,3.7231445-8.2988281,8.2993164-8.2988281
	s8.2993164,3.7226563,8.2993164,8.2988281v10C191.3389587,310.4851074,187.6158142,314.2077637,183.0396423,314.2077637z
	 M133.0396423,314.2077637c-4.5761719,0-8.2993164-3.7226563-8.2993164-8.2988281v-10
	c0-4.5761719,3.7231445-8.2988281,8.2993164-8.2988281s8.2993164,3.7226563,8.2993164,8.2988281v10
	C141.3389587,310.4851074,137.6158142,314.2077637,133.0396423,314.2077637z M83.0396423,314.2077637
	c-4.5761719,0-8.2993164-3.7226563-8.2993164-8.2988281v-10c0-4.5761719,3.7231445-8.2988281,8.2993164-8.2988281
	s8.2993164,3.7226563,8.2993164,8.2988281v10C91.3389587,310.4851074,87.6158142,314.2077637,83.0396423,314.2077637z"/>
</svg>
